<svg width="20" height="21" viewBox="0 0 20 21" fill="none" xmlns="http://www.w3.org/2000/svg">
<path fill-rule="evenodd" clip-rule="evenodd" d="M9.375 11.36C9.375 11.1942 9.30915 11.0353 9.19194 10.9181C9.07473 10.8008 8.91576 10.735 8.75 10.735H4.375C4.20924 10.735 4.05027 10.8008 3.93306 10.9181C3.81585 11.0353 3.75 11.1942 3.75 11.36V15.735C3.75 15.9008 3.81585 16.0597 3.93306 16.1769C4.05027 16.2942 4.20924 16.36 4.375 16.36H8.75C8.91576 16.36 9.07473 16.2942 9.19194 16.1769C9.30915 16.0597 9.375 15.9008 9.375 15.735V11.36ZM16.25 11.36C16.25 11.1942 16.1842 11.0353 16.0669 10.9181C15.9497 10.8008 15.7908 10.735 15.625 10.735H11.25C11.0842 10.735 10.9253 10.8008 10.8081 10.9181C10.6908 11.0353 10.625 11.1942 10.625 11.36V15.735C10.625 15.9008 10.6908 16.0597 10.8081 16.1769C10.9253 16.2942 11.0842 16.36 11.25 16.36H15.625C15.7908 16.36 15.9497 16.2942 16.0669 16.1769C16.1842 16.0597 16.25 15.9008 16.25 15.735V11.36ZM16.25 4.48499C16.25 4.31923 16.1842 4.16026 16.0669 4.04305C15.9497 3.92584 15.7908 3.85999 15.625 3.85999H11.25C11.0842 3.85999 10.9253 3.92584 10.8081 4.04305C10.6908 4.16026 10.625 4.31923 10.625 4.48499V8.85999C10.625 9.02575 10.6908 9.18472 10.8081 9.30193C10.9253 9.41914 11.0842 9.48499 11.25 9.48499H15.625C15.7908 9.48499 15.9497 9.41914 16.0669 9.30193C16.1842 9.18472 16.25 9.02575 16.25 8.85999V4.48499ZM9.375 4.48499C9.375 4.31923 9.30915 4.16026 9.19194 4.04305C9.07473 3.92584 8.91576 3.85999 8.75 3.85999H4.375C4.20924 3.85999 4.05027 3.92584 3.93306 4.04305C3.81585 4.16026 3.75 4.31923 3.75 4.48499V8.85999C3.75 9.02575 3.81585 9.18472 3.93306 9.30193C4.05027 9.41914 4.20924 9.48499 4.375 9.48499H8.75C8.91576 9.48499 9.07473 9.41914 9.19194 9.30193C9.30915 9.18472 9.375 9.02575 9.375 8.85999V4.48499Z" fill="#F39F5F"/>
</svg>
